<svg xmlns="http://www.w3.org/2000/svg" viewBox="0 0 512 512">
  <rect width="512" height="512" rx="96" fill="#155e75" />
  <path fill="#f59e0b" d="M126 132h260c24 0 44 20 44 44v160c0 24-20 44-44 44H126c-24 0-44-20-44-44V176c0-24 20-44 44-44Z" />
  <path fill="#fff" d="M158 214h56v-56h60v56h56v60h-56v56h-60v-56h-56z" />
  <circle cx="344" cy="214" r="27" fill="#dc4c3e" />
  <circle cx="382" cy="280" r="27" fill="#0f766e" />
  <path fill="#18212f" opacity=".2" d="M126 380h260c24 0 44-20 44-44v28c0 24-20 44-44 44H126c-24 0-44-20-44-44v-28c0 24 20 44 44 44Z" />
</svg>
